<svg width="179" height="164" viewBox="0 0 179 164" fill="none" xmlns="http://www.w3.org/2000/svg">
<path d="M171.196 29.79H31.5982L29.5282 6.67636C29.3646 4.8519 28.524 3.15476 27.1717 1.91911C25.8195 0.683454 24.0536 -0.00118127 22.2218 1.53004e-06H7.33091C5.38663 1.53004e-06 3.52199 0.772363 2.14717 2.14718C0.772361 3.52199 0 5.38663 0 7.33091C0 9.27519 0.772361 11.1398 2.14717 12.5146C3.52199 13.8895 5.38663 14.6618 7.33091 14.6618H15.5127L23.9482 108.614C24.5455 115.388 28.2027 122.735 34.5109 127.726C23.1464 142.241 33.5291 163.636 52.02 163.636C67.3609 163.636 78.1773 148.336 72.9164 133.838H113.048C107.795 148.32 118.587 163.636 133.953 163.636C139.846 163.63 145.497 161.286 149.665 157.118C153.832 152.951 156.176 147.3 156.183 141.406C156.176 135.513 153.832 129.862 149.665 125.695C145.497 121.527 139.846 119.183 133.953 119.176H52.0691C46.4973 119.176 41.6455 115.822 39.5509 110.921L156.723 104.032C158.282 103.941 159.771 103.354 160.973 102.358C162.175 101.362 163.028 100.008 163.407 98.4927L178.306 38.9045C178.576 37.823 178.596 36.6942 178.364 35.6039C178.132 34.5136 177.656 33.4903 176.969 32.6118C176.283 31.7333 175.406 31.0226 174.404 30.5337C173.403 30.0448 172.303 29.7904 171.188 29.79H171.196ZM52.0118 148.975C50.0655 148.884 48.2289 148.047 46.8835 146.638C45.5381 145.228 44.7875 143.355 44.7875 141.406C44.7875 139.458 45.5381 137.584 46.8835 136.175C48.2289 134.766 50.0655 133.929 52.0118 133.838C53.9581 133.929 55.7948 134.766 57.1401 136.175C58.4855 137.584 59.2362 139.458 59.2362 141.406C59.2362 143.355 58.4855 145.228 57.1401 146.638C55.7948 148.047 53.9581 148.884 52.0118 148.975V148.975ZM133.953 148.975C132.006 148.884 130.17 148.047 128.824 146.638C127.479 145.228 126.728 143.355 126.728 141.406C126.728 139.458 127.479 137.584 128.824 136.175C130.17 134.766 132.006 133.929 133.953 133.838C135.899 133.929 137.736 134.766 139.081 136.175C140.426 137.584 141.177 139.458 141.177 141.406C141.177 143.355 140.426 145.228 139.081 146.638C137.736 148.047 135.899 148.884 133.953 148.975V148.975ZM150.488 89.7136L37.5791 96.3409L32.9155 44.46H161.804L150.488 89.7055V89.7136Z" fill="white"/>
</svg>
